<svg version="1.1" id="Layer_1" xmlns="http://www.w3.org/2000/svg" xmlns:xlink="http://www.w3.org/1999/xlink" x="0px" y="0px" width="100%" viewBox="0 0 1024 544" enable-background="new 0 0 1024 544" xml:space="preserve">
<path fill="#000000" opacity="1.000000" stroke="none" d="
M674.999878,295.404724 
	C668.001160,295.401337 661.494385,295.200317 655.006531,295.464111 
	C650.781006,295.635925 649.278809,293.943817 649.634888,289.916077 
	C649.809998,287.934570 649.635925,285.920258 649.587341,283.921600 
	C649.556763,282.666809 649.192078,281.594147 647.739380,281.369080 
	C646.376709,281.157928 645.566895,281.868866 645.005920,283.038666 
	C643.856934,285.434631 642.914429,287.974182 641.459900,290.172028 
	C629.313477,308.526337 600.070251,309.821320 585.992310,292.690125 
	C584.749390,291.177612 583.547363,289.631531 582.030212,287.729797 
	C580.779175,290.346313 583.204651,292.335663 581.715393,294.761688 
	C580.065979,296.025909 577.651611,295.315826 575.425171,295.317719 
	C513.270630,295.370514 451.116028,295.395081 388.961548,295.316528 
	C384.968567,295.311462 381.681458,296.185822 378.314545,298.488251 
	C364.796143,307.732574 344.311890,306.864746 333.154572,296.585175 
	C325.177002,289.235199 321.618713,280.069214 323.512024,269.143707 
	C324.311737,264.528839 324.845764,260.593750 321.822906,255.838608 
	C317.694611,249.344589 315.684265,241.509018 312.727631,234.264221 
	C308.644043,224.258041 308.626862,224.226273 319.369049,223.700333 
	C321.518646,223.595093 323.573822,223.295807 324.243042,221.057327 
	C325.179321,217.925415 327.371094,217.688629 330.056763,217.696701 
	C346.053467,217.744736 362.051178,217.790161 378.046753,217.642303 
	C381.606018,217.609390 383.433258,218.947403 384.737244,222.218140 
	C389.368225,233.833878 389.473816,233.813416 401.309357,229.054840 
	C411.506866,224.954834 421.751862,220.962067 431.847351,216.622925 
	C438.411682,213.801514 445.077484,212.449570 452.233246,212.655045 
	C461.495514,212.920990 470.771210,212.719910 480.196899,212.719910 
	C478.275604,204.734497 478.741577,204.186188 486.912140,204.056931 
	C489.577667,204.014755 492.247101,203.962723 494.909454,204.060150 
	C497.016174,204.137238 499.492767,203.619019 500.865479,205.751373 
	C502.518188,208.318695 499.181824,209.312302 498.624939,211.462952 
	C507.453888,216.204712 504.225616,223.168655 501.648376,229.992828 
	C504.618591,231.076935 507.164032,229.815262 509.690277,229.408463 
	C519.216858,227.874405 528.724792,226.201950 538.198730,224.369949 
	C547.499329,222.571487 556.369202,224.161346 562.873718,230.738632 
	C572.086182,240.054138 582.579834,243.243500 595.225708,241.889252 
	C599.986267,241.379456 604.832886,241.794830 609.649353,241.020386 
	C617.016541,239.835800 623.893860,241.860397 630.258728,245.481995 
	C633.017639,247.051743 635.124634,247.082397 637.993713,245.379669 
	C653.500488,236.176788 671.530029,241.978165 678.783630,258.413635 
	C679.827332,260.778412 681.240601,262.255432 683.560852,263.075195 
	C684.816772,263.518890 686.130249,263.875549 687.288147,264.508575 
	C700.487915,271.724945 714.724609,273.061646 729.372498,271.899323 
	C733.897766,271.540253 736.007996,273.198853 735.351440,277.856384 
	C735.282410,278.346466 735.343201,278.854889 735.344299,279.354797 
	C735.368958,290.401489 734.587158,291.561035 723.350098,293.211731 
	C707.490723,295.541382 691.482178,295.353668 674.999878,295.404724 
M426.762634,268.259827 
	C434.800934,266.793976 442.694244,264.774628 450.286835,261.734100 
	C469.793915,253.922226 489.876312,249.102295 511.048676,249.651230 
	C513.634460,249.718246 516.357605,249.979019 518.690613,248.293655 
	C514.988342,241.946442 510.662903,239.008392 503.732910,239.528229 
	C489.805695,240.572968 475.914795,242.105850 462.012115,243.470291 
	C459.557251,243.711212 457.296722,245.739319 454.471466,244.564590 
	C455.212891,242.293808 457.131226,242.230011 458.564148,241.711334 
	C465.921661,239.048233 473.384583,236.720535 481.173218,235.650146 
	C485.191284,235.097916 489.274017,234.747025 489.460846,229.191422 
	C489.500397,228.014862 490.484985,227.102936 491.615692,226.612762 
	C494.965729,225.160538 495.288910,222.324051 495.307831,219.008911 
	C490.915283,217.638733 486.584503,218.619812 482.344543,218.319977 
	C464.836334,217.081894 448.836456,221.602585 433.665619,230.271149 
	C418.938843,238.685959 404.193909,247.213287 387.539673,251.522644 
	C386.986420,251.665802 386.554840,252.279449 386.102142,252.645020 
	C386.809296,255.717911 389.050751,255.699371 391.243011,255.643143 
	C399.718475,255.425705 408.223297,256.364136 416.672516,254.983368 
	C417.586853,254.833939 418.754639,254.623764 418.966370,256.424835 
	C412.526154,260.399658 404.180725,260.559448 397.698975,265.898590 
	C407.115356,271.131165 416.547058,269.410339 426.762634,268.259827 
M596.341858,269.245178 
	C595.068359,281.629700 604.549500,290.152344 614.905090,285.931702 
	C621.087280,283.412018 624.596802,277.455414 623.796875,270.839874 
	C623.021973,264.431976 617.948120,259.403168 611.346497,258.499969 
	C605.028564,257.635559 599.794067,261.140289 596.341858,269.245178 
M364.256470,282.641571 
	C368.456543,275.445679 367.538605,268.224884 361.796997,263.294281 
	C356.878296,259.070312 349.391937,259.125000 344.372314,263.421448 
	C338.307312,268.612701 337.711731,277.680328 343.055450,283.469818 
	C348.679626,289.563141 357.192078,289.464905 364.256470,282.641571 
M711.487122,280.014252 
	C688.623535,270.889801 665.616394,262.170013 641.432312,254.472046 
	C642.506348,257.591278 643.899048,258.932678 646.145996,259.688751 
	C668.215515,267.114624 689.730652,275.994690 711.340759,284.625549 
	C712.417114,285.055450 713.522583,285.497101 714.655273,285.677704 
	C715.870789,285.871521 717.342468,286.390228 718.033813,284.582092 
	C716.967163,281.933777 714.242920,281.561707 711.487122,280.014252 
M528.427979,244.454315 
	C531.148804,244.796265 533.857483,244.953201 538.000366,244.137497 
	C535.164062,243.339966 533.696960,243.128891 532.417236,242.522354 
	C530.271118,241.505203 529.205933,239.415848 530.922974,237.689545 
	C533.851501,234.745102 537.829895,236.286880 541.386108,236.345093 
	C544.185364,236.390900 544.841614,238.434753 544.994080,240.814575 
	C545.098022,242.438553 545.006775,244.793732 547.300964,244.462280 
	C552.076416,243.772415 557.001221,243.189682 561.571838,240.167603 
	C547.940674,225.326447 532.999634,233.602859 517.832153,235.818909 
	C520.786072,239.827423 523.873230,242.418121 528.427979,244.454315 
M580.301697,247.239685 
	C577.653564,247.197052 575.005432,247.126465 572.357239,247.119659 
	C569.709534,247.112854 567.061340,247.151031 564.414062,247.204422 
	C561.994507,247.253204 559.607544,247.481735 556.832336,248.834549 
	C568.213379,249.068619 578.983032,250.815811 589.627136,248.798584 
	C589.617126,248.287933 589.607178,247.777298 589.597168,247.266647 
	C586.807617,247.266647 584.018005,247.266647 580.301697,247.239685 
z" data-index="0" style="visibility: visible; opacity: 1;"></path>
<path fill="#000000" opacity="1.000000" stroke="none" d="
M517.000000,139.186646 
	C497.671783,139.181778 478.843597,139.167999 460.015381,139.173248 
	C451.054993,139.175751 442.909241,146.881607 442.465088,155.666351 
	C442.368378,157.580093 443.289917,158.490021 445.023438,158.635071 
	C446.845764,158.787567 448.683258,158.802505 450.514130,158.802628 
	C483.171936,158.804779 515.829773,158.784592 548.487549,158.814392 
	C550.574768,158.816284 552.809998,158.212509 555.348572,160.145386 
	C552.994812,166.810928 550.645874,173.678207 548.146179,180.490128 
	C544.547974,190.295242 544.501160,190.287796 533.968750,190.289825 
	C501.644165,190.296051 469.318970,190.391983 436.995636,190.190292 
	C432.122803,190.159882 429.253021,191.169571 428.083588,196.336304 
	C427.136566,200.520447 424.638947,204.365250 423.782104,208.555435 
	C422.537781,214.640732 418.704926,217.380676 413.308533,219.268433 
	C407.503052,221.299301 401.862610,223.816437 396.203735,226.246216 
	C392.991699,227.625397 390.782745,227.139175 389.634888,223.576035 
	C389.177124,222.154999 388.279083,220.859314 387.932465,219.421921 
	C386.695923,214.293762 383.190582,213.034042 378.481781,213.526169 
	C376.054382,213.779861 373.526093,214.517944 370.876251,212.232361 
	C373.403900,205.067749 375.940125,197.737381 378.573608,190.442093 
	C385.129242,172.281311 391.479553,154.041046 398.375397,136.009796 
	C406.713531,114.207291 425.326324,101.698891 448.582184,101.691917 
	C500.901367,101.676239 553.220520,101.684586 605.539734,101.725502 
	C607.435364,101.726982 609.533691,101.087074 611.186157,102.649879 
	C611.576233,104.671288 609.989075,105.315811 608.870361,106.178932 
	C595.814819,116.251549 582.688416,126.233215 569.706360,136.399338 
	C567.028564,138.496323 564.318787,139.273712 560.987793,139.245407 
	C546.492737,139.122284 531.996094,139.188263 517.000000,139.186646 
z" data-index="1" style="visibility: visible; opacity: 1;"></path>
<path fill="#000000" opacity="1.000000" stroke="none" d="
M694.927002,322.640259 
	C697.737793,322.757996 700.108826,322.615326 702.375427,323.035645 
	C716.840210,325.717926 723.381348,335.149841 720.687744,349.769165 
	C717.669800,366.148987 712.885193,382.116577 707.396362,397.774048 
	C701.373169,414.955902 686.984131,421.423767 670.122925,421.989349 
	C649.004944,422.697754 627.840820,422.414459 606.705627,422.046814 
	C597.763367,421.891235 589.143494,419.811371 583.496399,411.649963 
	C580.086121,406.721283 578.867004,401.319824 580.189758,395.516785 
	C583.699829,380.118195 587.552368,364.791748 592.412903,349.766541 
	C598.039490,332.373016 611.729370,322.694397 630.014343,322.654877 
	C651.489136,322.608459 672.964111,322.641541 694.927002,322.640259 
M627.646851,397.947174 
	C638.628906,397.948578 649.612366,398.056183 660.592651,397.918030 
	C669.532654,397.805603 673.617004,394.767639 676.175049,386.122864 
	C678.861450,377.044281 681.321350,367.891663 683.605530,358.703125 
	C685.889343,349.516388 683.341614,346.416840 673.883606,346.394501 
	C663.234314,346.369354 652.584900,346.399017 641.935608,346.430817 
	C631.905396,346.460754 627.403503,349.714844 624.523438,359.433777 
	C621.974487,368.035004 619.682129,376.712860 617.323547,385.369720 
	C614.645935,395.197174 616.507202,397.667694 627.646851,397.947174 
z" data-index="2" style="visibility: visible;"></path>
<path fill="#000000" opacity="1.000000" stroke="none" d="
M495.038147,388.361023 
	C481.556396,388.525482 484.216553,386.735779 480.776093,398.824677 
	C478.910034,405.381470 477.005951,411.928436 475.242645,418.512970 
	C474.593048,420.938751 473.391479,422.225677 470.747986,422.205414 
	C461.756317,422.136536 452.763855,422.161499 443.771698,422.167023 
	C440.800140,422.168854 439.501556,421.180267 440.430145,417.889496 
	C448.872711,387.971100 457.299408,358.047607 465.518890,328.067535 
	C466.723785,323.672607 468.920197,322.521729 473.269470,322.550354 
	C500.911346,322.732483 528.555054,322.613922 556.198181,322.641571 
	C575.165100,322.660553 583.752808,332.806427 580.212463,351.483337 
	C578.108582,362.581848 574.490662,373.043152 564.786743,380.240540 
	C560.939087,383.094330 556.617432,384.749695 552.165894,386.043762 
	C548.388306,387.141907 547.803955,388.735657 549.724731,392.098511 
	C554.677856,400.770508 559.414307,409.566467 564.207275,418.329315 
	C564.592651,419.033936 564.747253,419.864777 564.972290,420.528412 
	C563.787109,422.483612 561.976379,422.128418 560.386292,422.137665 
	C551.227722,422.191010 542.067383,422.078461 532.910889,422.226685 
	C529.798096,422.277039 528.030151,420.957153 526.641479,418.329590 
	C522.365051,410.237671 517.703552,402.340332 513.672729,394.131195 
	C511.551666,389.811432 508.896210,387.714172 504.013580,388.303162 
	C501.223328,388.639709 498.358978,388.362061 495.038147,388.361023 
M499.092102,346.342865 
	C497.550842,346.363922 495.973389,346.469421 495.365723,348.195923 
	C493.463318,353.601044 491.702148,359.047882 490.958557,364.823608 
	C492.168793,365.176208 492.794556,365.516968 493.420593,365.517487 
	C506.050323,365.528137 518.681213,365.585938 531.309021,365.418121 
	C534.440552,365.376526 537.612610,364.722931 540.207642,362.629852 
	C544.093018,359.496033 545.537598,355.184296 544.443604,350.604950 
	C543.360596,346.071381 539.001160,346.376129 535.379150,346.352814 
	C523.579102,346.276886 511.778229,346.330658 499.092102,346.342865 
z" data-index="3" style="visibility: visible; opacity: 1;"></path>
<path fill="#000000" opacity="1.000000" stroke="none" d="
M376.999939,392.285034 
	C369.003418,392.279144 361.502136,392.428040 354.012482,392.198242 
	C350.506897,392.090668 348.994904,393.421875 348.174957,396.757202 
	C346.428192,403.862549 344.130554,410.832581 342.388733,417.938965 
	C341.602112,421.148224 340.018951,422.295807 336.828339,422.246704 
	C328.334229,422.115875 319.835632,422.103546 311.341400,422.224487 
	C307.063110,422.285400 306.291321,420.641754 307.421722,416.685974 
	C315.875671,387.102386 324.232208,357.490448 332.441315,327.838135 
	C333.515442,323.958191 335.266479,322.536499 339.353668,322.559326 
	C367.839569,322.718536 396.327087,322.567505 424.813477,322.674042 
	C442.026581,322.738434 450.819427,333.546021 447.596100,350.531891 
	C445.886230,359.542236 443.853699,368.554230 438.493347,376.217010 
	C430.274078,387.966675 417.795502,391.329498 404.481293,392.139008 
	C395.517700,392.683990 386.495789,392.269745 376.999939,392.285034 
M358.963623,358.243591 
	C358.275757,361.426575 356.686401,364.420258 356.672058,367.507141 
	C357.866577,368.783936 359.082947,368.635895 360.222168,368.619812 
	C371.040497,368.467377 381.858765,368.303345 392.676300,368.103912 
	C395.503296,368.051819 398.368561,368.124207 401.145325,367.687988 
	C407.855164,366.634003 412.453278,359.764404 411.657928,352.347565 
	C411.166168,347.761841 408.508453,346.345062 400.335297,346.345306 
	C391.176331,346.345551 382.017395,346.365692 372.858429,346.368774 
	C361.696594,346.372528 361.696594,346.368744 358.963623,358.243591 
z" data-index="4" style="visibility: visible; opacity: 1;"></path>
<path fill="#000000" opacity="1.000000" stroke="none" d="
M665.527649,152.448853 
	C655.344971,180.489655 645.226624,208.137711 635.319702,235.861282 
	C633.880249,239.889420 632.289124,240.924835 628.116516,239.282837 
	C621.073914,236.511444 613.754395,235.969391 606.087646,237.090958 
	C600.060913,237.972641 593.806213,237.430023 587.657410,237.301086 
	C582.922546,237.201797 584.487061,234.278183 585.426025,231.724228 
	C592.716431,211.893738 600.009399,192.064194 607.280762,172.226730 
	C610.601440,163.167267 613.893433,154.097153 617.152039,145.015198 
	C617.697571,143.494781 618.005493,141.889130 618.672180,139.389526 
	C608.894348,139.389526 599.724182,139.389526 590.687805,139.389526 
	C589.983765,136.162811 592.027344,135.416595 593.343811,134.399338 
	C606.515259,124.221680 619.734619,114.105904 632.955322,103.992149 
	C634.546021,102.775291 636.206421,101.703934 638.365234,101.709702 
	C652.351685,101.747070 666.338196,101.739105 680.324524,101.792381 
	C681.083557,101.795265 681.840942,102.215096 683.318054,102.654892 
	C677.369202,119.305954 671.514648,135.693192 665.527649,152.448853 
z" data-index="5" style="visibility: visible;"></path>
</svg>